<svg width="16" height="17" viewBox="0 0 16 17" fill="none" xmlns="http://www.w3.org/2000/svg">
<path fill-rule="evenodd" clip-rule="evenodd" d="M3.8929 13.2525C3.6089 12.8935 3.2639 12.1595 2.6499 11.2685C2.3019 10.7645 1.4389 9.81552 1.1819 9.33352C0.958897 8.90752 0.982897 8.71652 1.0359 8.36352C1.1299 7.73552 1.7739 7.24652 2.4609 7.31252C2.9799 7.36152 3.4199 7.70452 3.8159 8.02852C4.0549 8.22352 4.3489 8.60252 4.5259 8.81652C4.6889 9.01252 4.7289 9.09352 4.9029 9.32552C5.1329 9.63252 5.2049 9.78452 5.1169 9.44652C5.0459 8.95052 4.9299 8.10352 4.7619 7.35452C4.6339 6.78652 4.6029 6.69752 4.4809 6.26152C4.3519 5.79752 4.2859 5.47252 4.1649 4.98052C4.0809 4.63252 3.9299 3.92152 3.8889 3.52152C3.8319 2.97452 3.8019 2.08252 4.1529 1.67252C4.4279 1.35152 5.0589 1.25452 5.4499 1.45252C5.9619 1.71152 6.2529 2.45552 6.3859 2.75252C6.6249 3.28652 6.7729 3.90352 6.9019 4.71352C7.0659 5.74452 7.3679 7.17552 7.3779 7.47652C7.4019 7.10752 7.3099 6.33052 7.3739 5.97652C7.4319 5.65552 7.7019 5.28252 8.0399 5.18152C8.3259 5.09652 8.6609 5.06552 8.9559 5.12652C9.2689 5.19052 9.5989 5.41452 9.7219 5.62552C10.0839 6.24952 10.0909 7.52452 10.1059 7.45652C10.1919 7.08052 10.1769 6.22752 10.3899 5.87252C10.5299 5.63852 10.8869 5.42752 11.0769 5.39352C11.3709 5.34152 11.7319 5.32552 12.0409 5.38552C12.2899 5.43452 12.6269 5.73052 12.7179 5.87252C12.9359 6.21652 13.0599 7.18952 13.0969 7.53052C13.1119 7.67152 13.1709 7.13852 13.3899 6.79452C13.7959 6.15552 15.2329 6.03152 15.2879 7.43352C15.3129 8.08752 15.3079 8.05752 15.3079 8.49752C15.3079 9.01452 15.2959 9.32552 15.2679 9.69952C15.2369 10.0995 15.1509 11.0035 15.0259 11.4415C14.9399 11.7425 14.6549 12.4195 14.3739 12.8255C14.3739 12.8255 13.2999 14.0755 13.1829 14.6385C13.0649 15.2005 13.1039 15.2045 13.0809 15.6035C13.0579 16.0015 13.2019 16.5255 13.2019 16.5255C13.2019 16.5255 12.3999 16.6295 11.9679 16.5605C11.5769 16.4975 11.0929 15.7195 10.9679 15.4815C10.7959 15.1535 10.4289 15.2165 10.2859 15.4585C10.0609 15.8415 9.5769 16.5285 9.2349 16.5715C8.5669 16.6555 7.1809 16.6025 6.0959 16.5915C6.0959 16.5915 6.2809 15.5805 5.8689 15.2335C5.5639 14.9745 5.0389 14.4495 4.7249 14.1735L3.8929 13.2525V13.2525Z" stroke="black" stroke-width="0.75" stroke-linecap="round" stroke-linejoin="round"/>
</svg>
